<?xml version="1.0" encoding="UTF-8" standalone="no"?>
<svg width="30px" height="30px" viewBox="0 0 30 30" version="1.1" xmlns="http://www.w3.org/2000/svg" xmlns:xlink="http://www.w3.org/1999/xlink">
    <!-- Generator: Sketch 3.6.1 (26313) - http://www.bohemiancoding.com/sketch -->
    <title>icon_download</title>
    <desc>Created with Sketch.</desc>
    <defs></defs>
    <g id="Page-1" stroke="none" stroke-width="1" fill="none" fill-rule="evenodd">
        <g id="icon_download" fill="#4990E2">
            <path d="M15.0007807,0 C6.71527486,0 0,6.71527518 0,14.9992186 C0,23.2847245 6.71527486,30 15.0007807,30 C23.2831618,30 29.9999994,23.2847245 29.9999994,14.9992186 C29.9999994,6.71527518 23.2831618,0 15.0007807,0 L15.0007807,0 Z M14.9992186,26.8736001 C8.44174774,26.8736001 3.12483722,21.5582519 3.12483722,14.9992186 C3.12483722,8.44018532 8.44018532,3.12483722 14.9992186,3.12483722 C21.5582519,3.12483722 26.8751625,8.44174774 26.8751625,14.9992186 C26.8751625,21.5566895 21.5566895,26.8736001 14.9992186,26.8736001 L14.9992186,26.8736001 Z M18.4886202,8.33289924 L12.2389458,8.33289924 L12.2389458,14.5825737 L8.33289924,14.5825737 L15.363783,21.6134574 L22.3946667,14.5825737 L18.4886202,14.5825737 L18.4886202,8.33289924 L18.4886202,8.33289924 Z" id="Page-1"></path>
        </g>
    </g>
</svg>